<svg width="16" height="20" viewBox="0 0 16 20" fill="none" xmlns="http://www.w3.org/2000/svg">
<path d="M13.7511 11.9975C14.9932 11.9975 16 13.0044 16 14.2468V14.8223C16 15.7167 15.6804 16.5817 15.0989 17.2612C13.5294 19.095 11.1422 20 7.99674 20C4.85075 20 2.46466 19.0947 0.898309 17.2601C0.31853 16.5811 0 15.7174 0 14.8245V14.2468C0 13.0044 1.00688 11.9975 2.24894 11.9975H13.7511ZM13.7511 13.4977H2.24894C1.83534 13.4977 1.50005 13.8331 1.50005 14.2468V14.8245C1.50005 15.3603 1.69116 15.8785 2.03904 16.2858C3.29238 17.7538 5.25832 18.4997 7.99674 18.4997C10.7351 18.4997 12.7028 17.7538 13.9593 16.2856C14.3082 15.8779 14.5 15.3589 14.5 14.8223V14.2468C14.5 13.8331 14.1646 13.4977 13.7511 13.4977ZM7.99674 0C10.7582 0 12.9969 2.23898 12.9969 5.00089C12.9969 7.76282 10.7582 10.0018 7.99674 10.0018C5.2352 10.0018 2.99656 7.76282 2.99656 5.00089C2.99656 2.23898 5.2352 0 7.99674 0ZM7.99674 1.50027C6.06368 1.50027 4.49661 3.06756 4.49661 5.00089C4.49661 6.93424 6.06368 8.50154 7.99674 8.50154C9.9298 8.50154 11.4969 6.93424 11.4969 5.00089C11.4969 3.06756 9.9298 1.50027 7.99674 1.50027Z" fill="#D76846"/>
</svg>
